<?xml version="1.0" standalone="no"?>
<!DOCTYPE svg PUBLIC "-//W3C//DTD SVG 20010904//EN"
 "http://www.w3.org/TR/2001/REC-SVG-20010904/DTD/svg10.dtd">
<svg version="1.0" xmlns="http://www.w3.org/2000/svg"
 width="300.000000pt" height="300.000000pt" viewBox="0 0 300.000000 300.000000"
 preserveAspectRatio="xMidYMid meet">
<metadata>
Created by potrace 1.11, written by Peter Selinger 2001-2013
</metadata>
<g transform="translate(0.000000,300.000000) scale(0.100000,-0.100000)"
fill="#000000" stroke="none">
<path d="M1284 2865 c-102 -15 -212 -48 -284 -85 -74 -37 -161 -109 -183 -151
l-18 -34 70 -72 c50 -51 82 -94 106 -145 46 -95 45 -118 -2 -150 -98 -65 -208
-201 -269 -334 -78 -168 -97 -368 -60 -639 28 -208 10 -255 -103 -263 -71 -5
-124 11 -151 45 -39 49 -19 171 33 208 12 8 18 17 15 21 -10 10 -111 -15 -145
-36 -106 -64 -144 -240 -80 -367 66 -129 261 -222 468 -223 143 0 324 64 422
150 46 40 48 41 82 29 49 -18 135 -97 180 -164 69 -105 125 -304 125 -446 0
-93 16 -69 24 35 17 240 107 439 242 538 76 55 84 55 151 4 133 -103 285 -152
448 -143 229 11 411 116 455 263 19 65 9 181 -21 239 -29 57 -102 108 -169
119 -56 9 -66 -1 -31 -29 33 -29 56 -99 47 -148 -3 -18 -20 -47 -36 -62 -27
-25 -40 -30 -99 -33 -79 -5 -126 14 -141 54 -14 36 -12 122 5 249 35 263 11
452 -80 635 -58 116 -179 256 -266 307 -34 20 -35 27 -10 99 25 69 97 171 156
220 l45 36 -18 30 c-48 84 -216 186 -363 222 -151 37 -386 46 -545 21z m277
-58 c-5 -12 -12 -57 -16 -99 l-7 -76 58 -7 c33 -3 71 -8 86 -11 24 -5 29 0 61
68 20 40 46 83 59 96 l24 22 74 -25 c71 -24 131 -55 179 -93 l23 -19 -54 -26
c-29 -14 -66 -40 -82 -56 l-29 -30 -41 16 c-22 9 -45 20 -50 24 -6 5 21 38 63
79 40 38 70 70 66 70 -40 0 -155 -117 -155 -158 0 -5 27 -20 61 -32 l60 -23
32 31 c18 16 57 45 87 62 l54 32 17 -21 c17 -21 15 -23 -55 -94 -40 -39 -79
-82 -87 -95 l-14 -23 -75 35 c-137 65 -212 80 -405 80 -193 0 -273 -16 -400
-80 l-70 -35 -24 33 c-14 18 -54 61 -90 95 -63 61 -64 63 -47 82 18 20 18 20
58 0 22 -11 60 -39 84 -61 l44 -40 60 18 c33 11 62 24 64 30 8 22 -63 113
-109 140 -25 14 -44 28 -42 30 2 2 37 15 77 29 l74 25 27 -32 c25 -30 58 -94
73 -141 5 -15 13 -18 44 -13 20 3 59 8 86 12 l48 7 -4 76 c-2 42 -10 85 -16
96 -9 16 -10 2 -5 -67 7 -98 13 -91 -85 -101 l-43 -5 -23 51 c-13 29 -35 67
-51 85 -15 18 -26 35 -24 37 11 10 138 23 246 24 l123 1 -9 -23z m162 12 c40
-6 73 -12 75 -14 2 -1 -11 -18 -27 -36 -17 -18 -40 -56 -52 -85 l-22 -51 -46
4 c-98 9 -94 5 -86 86 3 40 9 80 11 90 6 20 42 22 147 6z m-634 -151 c36 -35
66 -77 60 -81 -2 -2 -24 -11 -48 -20 l-44 -17 -44 41 c-24 22 -60 47 -79 55
-19 8 -34 16 -34 19 0 2 23 20 52 39 51 35 51 35 77 16 14 -10 41 -33 60 -52z
m650 -177 c137 -40 233 -82 227 -98 -4 -8 -9 -25 -12 -38 l-6 -23 -46 28
c-206 127 -591 129 -797 4 l-53 -32 -6 23 c-3 13 -8 30 -12 38 -6 17 100 65
217 96 110 29 112 30 269 26 112 -2 162 -8 219 -24z m-127 -112 c90 -18 181
-51 224 -80 146 -100 243 -331 244 -581 l0 -58 -54 0 c-40 0 -60 -5 -77 -21
-21 -18 -22 -20 -4 -14 77 26 138 12 184 -40 82 -94 80 -307 -4 -451 -60 -103
-206 -223 -334 -274 -44 -17 -59 -19 -87 -10 -31 11 -114 83 -114 101 0 4 15
9 33 11 l32 4 -30 13 c-39 18 -200 18 -240 0 l-30 -13 28 -4 c15 -2 27 -7 27
-12 0 -20 -61 -78 -101 -95 -40 -18 -43 -18 -93 -1 -82 29 -188 100 -257 174
-107 113 -159 237 -159 377 0 118 61 215 145 231 34 6 46 5 90 -11 17 -6 17
-4 -4 14 -16 15 -37 21 -67 21 l-44 0 0 68 c0 210 86 437 204 538 114 98 324
146 488 113z"/>
<path d="M1182 2214 c-12 -8 -32 -34 -44 -57 -20 -36 -23 -58 -23 -157 0 -93
4 -122 19 -150 45 -86 88 -101 137 -49 39 42 53 97 53 204 0 162 -68 261 -142
209z"/>
<path d="M1724 2215 c-12 -8 -32 -38 -45 -67 -31 -70 -34 -218 -6 -290 31 -81
93 -111 134 -65 41 44 57 90 61 178 5 105 -16 188 -58 230 -32 32 -55 36 -86
14z"/>
<path d="M1448 1679 c-20 -11 -25 -73 -7 -85 7 -4 9 0 5 14 -10 30 10 62 39
62 41 0 55 -11 55 -42 0 -17 4 -27 10 -23 16 10 11 51 -8 68 -21 19 -68 22
-94 6z"/>
<path d="M1107 1662 c-10 -11 -17 -35 -17 -62 0 -35 6 -48 33 -74 45 -43 92
-56 218 -63 99 -5 108 -4 128 16 26 26 27 53 2 75 -17 15 -34 17 -148 10 -108
-5 -134 -4 -160 9 -33 17 -46 38 -37 61 10 26 38 28 57 4 l19 -22 -4 29 c-3
26 -7 30 -39 33 -24 2 -40 -3 -52 -16z m342 -116 c-2 -2 -35 -6 -74 -9 -45 -3
-58 -3 -35 2 37 9 116 14 109 7z m-161 -23 c-10 -2 -28 -2 -40 0 -13 2 -5 4
17 4 22 1 32 -1 23 -4z"/>
<path d="M1800 1665 c-7 -8 -9 -22 -6 -31 5 -14 9 -13 25 7 18 22 21 23 37 7
24 -24 11 -63 -26 -78 -22 -9 -64 -11 -159 -5 -112 6 -130 5 -144 -10 -23 -22
-21 -58 3 -80 17 -16 33 -17 127 -13 168 8 253 54 253 137 0 52 -23 81 -64 81
-19 0 -39 -7 -46 -15z m-192 -122 c-10 -2 -28 -2 -40 0 -13 2 -5 4 17 4 22 1
32 -1 23 -4z m112 -12 c34 -6 37 -9 15 -9 -16 -1 -48 3 -70 7 -53 11 -5 12 55
2z"/>
<path d="M905 1445 c-19 -19 -25 -34 -24 -67 l2 -43 10 38 c6 20 13 37 16 37
4 0 14 -22 24 -49 25 -70 92 -166 144 -206 111 -85 222 -115 424 -115 103 0
154 5 213 20 172 44 285 142 341 295 10 28 20 52 22 55 7 9 23 -25 23 -50 1
-22 2 -23 11 -7 14 24 2 73 -24 97 -13 12 -35 20 -56 20 l-36 -1 40 -17 39
-18 -54 -41 c-157 -117 -340 -169 -563 -160 -191 7 -322 49 -469 149 -32 21
-58 43 -58 49 0 5 15 16 33 24 l32 14 -33 1 c-22 0 -41 -8 -57 -25z m530 -296
c22 -6 52 -23 68 -37 19 -18 27 -21 27 -11 0 8 -5 20 -11 26 -28 28 105 36
146 9 21 -14 23 -20 15 -36 -15 -27 -71 -40 -175 -40 -107 1 -171 12 -193 34
-14 14 -14 17 2 35 10 11 30 22 45 24 14 2 28 5 31 5 3 1 23 -3 45 -9z"/>
</g>
</svg>
